PathFileType	3	(X/Y/Z)	random_1__fused_aligned.trc
DataRate	CameraRate	NumFrames	NumMarkers	Units	OrigDataRate	OrigDataStartFrame	OrigNumFrames
100.0	100.0	14	19	mm	100.0	400	1870
Frame#	Time	pelvis			neck			head			hip_left			hip_right			knee_left			knee_right			ankle_left			ankle_right			heel_left			heel_right			toe_left			toe_right			shoulder_left			shoulder_right			elbow_left			elbow_right			wrist_left			wrist_right			
		X1	Y1	Z1	X2	Y2	Z2	X3	Y3	Z3	X4	Y4	Z4	X5	Y5	Z5	X6	Y6	Z6	X7	Y7	Z7	X8	Y8	Z8	X9	Y9	Z9	X10	Y10	Z10	X11	Y11	Z11	X12	Y12	Z12	X13	Y13	Z13	X14	Y14	Z14	X15	Y15	Z15	X16	Y16	Z16	X17	Y17	Z17	X18	Y18	Z18	X19	Y19	Z19	
400	3.99000	-48.540367	943.259007	137.319562	-81.448329	1541.995378	134.514379	-33.505455	1691.442893	87.009227	-98.949064	941.173477	80.089152	1.868364	945.344512	194.549972	-36.494272	517.196714	-3.265194	114.661798	524.736368	133.228152	-104.640286	125.783437	92.722903	20.089216	131.415638	189.223503	-124.130276	81.906106	127.058567	-16.335591	87.602475	206.818833	-10.087152	56.580066	-57.593393	173.179482	53.355101	100.048918	-178.916578	1511.882749	0.558406	16.054406	1517.911030	261.103006	88.859787	1493.555004	-83.780839	183.850720	1575.334738	45.085944	161.554948	1705.517294	-32.221108	116.970067	1784.828180	-68.524481
401	4.00000	-45.522035	943.391307	137.870007	-79.714951	1542.367358	134.773267	-30.562561	1691.931315	88.918426	-94.097750	941.132852	79.423564	3.053727	945.649740	196.316450	-28.699402	517.057543	-1.798081	115.415255	524.000802	138.188429	-99.435789	125.795134	90.806673	18.919729	130.474699	192.379872	-119.703971	82.063157	124.025952	-17.948580	86.613237	209.156669	-2.793453	55.755046	-54.255773	174.088340	52.549502	106.668647	-172.961502	1512.405171	-1.700998	13.441589	1518.181450	263.783936	97.648542	1496.750510	-79.882016	186.621679	1576.798553	54.364046	165.999421	1709.220068	-26.831673	122.102605	1785.296551	-59.775801
402	4.01000	-42.503702	943.523607	138.420452	-77.981573	1542.739339	135.032156	-27.619667	1692.419736	90.827624	-89.246437	941.092226	78.757976	4.239091	945.954968	198.082929	-20.904532	516.918372	-0.330968	116.168712	523.265236	143.148706	-94.231292	125.806831	88.890443	17.750242	129.533761	195.536241	-115.277667	82.220209	120.993337	-19.561569	85.623999	211.494504	4.500245	54.930027	-50.918153	174.997199	51.743902	113.288376	-167.006426	1512.927592	-3.960401	10.828773	1518.451869	266.464866	106.437297	1499.946017	-75.983193	189.392638	1578.262368	63.642148	170.443894	1712.922842	-21.442237	127.235142	1785.764921	-51.027121
403	4.02000	-39.485370	943.655907	138.970898	-76.248195	1543.111319	135.291044	-24.676773	1692.908157	92.736823	-84.395123	941.051600	78.092388	5.424454	946.260195	199.849407	-13.109662	516.779201	1.136146	116.922169	522.529670	148.108983	-89.026795	125.818528	86.974213	16.580755	128.592822	198.692611	-110.851362	82.377260	117.960721	-21.174558	84.634761	213.832340	11.793943	54.105007	-47.580533	175.906058	50.938303	119.908106	-161.051350	1513.450014	-6.219804	8.215957	1518.722288	269.145797	115.226052	1503.141523	-72.084370	192.163598	1579.726182	72.920250	174.888367	1716.625616	-16.052802	132.367680	1786.233291	-42.278441
404	4.03000	-36.467038	943.788207	139.521343	-74.514816	1543.483300	135.549932	-21.733879	1693.396578	94.646022	-79.543809	941.010975	77.426800	6.609817	946.565423	201.615886	-5.314792	516.640030	2.603259	117.675625	521.794104	153.069259	-83.822298	125.830225	85.057984	15.411268	127.651884	201.848980	-106.425057	82.534311	114.928106	-22.787546	83.645523	216.170176	19.087641	53.279988	-44.242913	176.814917	50.132703	126.527835	-155.096275	1513.972436	-8.479207	5.603140	1518.992708	271.826727	124.014807	1506.337029	-68.185548	194.934557	1581.189997	82.198352	179.332840	1720.328391	-10.663366	137.500217	1786.701662	-33.529761
405	4.04000	-33.448706	943.920508	140.071788	-72.781438	1543.855280	135.808820	-18.790985	1693.884999	96.555220	-74.692496	940.970349	76.761212	7.795180	946.870651	203.382364	2.480078	516.500859	4.070373	118.429082	521.058539	158.029536	-78.617801	125.841922	83.141754	14.241781	126.710945	205.005349	-101.998752	82.691362	111.895490	-24.400535	82.656285	218.508011	26.381339	52.454968	-40.905293	177.723776	49.327104	133.147564	-149.141199	1514.494858	-10.738610	2.990324	1519.263127	274.507657	132.803562	1509.532536	-64.286725	197.705517	1582.653812	91.476454	183.777313	1724.031165	-5.273931	142.632755	1787.170032	-24.781081
406	4.05000	-30.430373	944.052808	140.622233	-71.048060	1544.227261	136.067708	-15.848091	1694.373420	98.464419	-69.841182	940.929724	76.095623	8.980543	947.175878	205.148843	10.274948	516.361687	5.537486	119.182539	520.322973	162.989813	-73.413304	125.853619	81.225524	13.072294	125.770007	208.161719	-97.572448	82.848413	108.862875	-26.013524	81.667047	220.845847	33.675038	51.629949	-37.567673	178.632635	48.521505	139.767293	-143.186123	1515.017280	-12.998014	0.377508	1519.533546	277.188588	141.592317	1512.728042	-60.387902	200.476476	1584.117627	100.754556	188.221786	1727.733939	0.115505	147.765292	1787.638402	-16.032402
407	4.06000	-27.412041	944.185108	141.172679	-69.314682	1544.599241	136.326596	-12.905197	1694.861841	100.373617	-64.989868	940.889098	75.430035	10.165907	947.481106	206.915321	18.069818	516.222516	7.004599	119.935996	519.587407	167.950090	-68.208807	125.865317	79.309294	11.902808	124.829068	211.318088	-93.146143	83.005464	105.830259	-27.626513	80.677809	223.183682	40.968736	50.804929	-34.230052	179.541494	47.715905	146.387023	-137.231048	1515.539702	-15.257417	-2.235309	1519.803966	279.869518	150.381072	1515.923548	-56.489079	203.247435	1585.581441	110.032658	192.666259	1731.436713	5.504941	152.897829	1788.106773	-7.283722
408	4.07000	-24.046163	944.365839	140.014232	-66.819292	1544.807918	134.320936	-9.902300	1695.163279	100.576339	-59.190918	940.935286	73.618917	11.098700	947.796379	206.409546	26.174327	516.156306	8.167547	119.660702	519.314795	171.440870	-61.619151	125.815226	75.573157	10.882878	124.289739	213.059792	-87.100264	83.017663	100.510233	-28.770947	80.138077	224.051171	48.824736	50.362720	-30.655550	179.086274	46.990438	152.135258	-129.170781	1515.844914	-18.307958	-5.322886	1520.050615	278.978513	158.001137	1517.700121	-51.662211	203.848955	1586.115185	118.662053	196.185006	1733.872778	10.063867	156.314339	1788.098161	1.411443
409	4.08000	-20.680285	944.546571	138.855785	-64.323902	1545.016594	132.315276	-6.899403	1695.464716	100.779060	-53.391968	940.981475	71.807800	12.031493	948.111652	205.903771	34.278837	516.090095	9.330494	119.385407	519.042184	174.931651	-55.029496	125.765136	71.837021	9.862949	123.750410	214.801495	-81.054385	83.029862	95.190206	-29.915382	79.598344	224.918660	56.680736	49.920510	-27.081047	178.631054	46.264971	157.883493	-121.110515	1516.150127	-21.358499	-8.410464	1520.297265	278.087507	165.621203	1519.476693	-46.835342	204.450475	1586.648929	127.291449	199.703754	1736.308842	14.622794	159.730849	1788.089548	10.106607
410	4.09000	-17.314408	944.727302	137.697339	-61.828511	1545.225270	130.309616	-3.896506	1695.766154	100.981782	-47.593018	941.027663	69.996682	12.964286	948.426924	205.397995	42.383346	516.023885	10.493441	119.110113	518.769573	178.422431	-48.439840	125.715046	68.100884	8.843020	123.211081	216.543198	-75.008506	83.042061	89.870180	-31.059817	79.058612	225.786149	64.536736	49.478301	-23.506545	178.175834	45.539504	163.631728	-113.050248	1516.455339	-24.409040	-11.498042	1520.543914	277.196502	173.241268	1521.253265	-42.008474	205.051995	1587.182673	135.920844	203.222501	1738.744906	19.181721	163.147358	1788.080936	18.801772
411	4.10000	-13.948530	944.908034	136.538892	-59.333121	1545.433947	128.303956	-0.893609	1696.067591	101.184503	-41.794067	941.073852	68.185564	13.897079	948.742197	204.892220	50.487856	515.957674	11.656389	118.834819	518.496962	181.913211	-41.850184	125.664956	64.364748	7.823091	122.671751	218.284902	-68.962627	83.054260	84.550153	-32.204252	78.518879	226.653638	72.392736	49.036091	-19.932042	177.720614	44.814036	169.379963	-104.989982	1516.760551	-27.459581	-14.585620	1520.790564	276.305496	180.861334	1523.029837	-37.181606	205.653515	1587.716417	144.550239	206.741249	1741.180970	23.740647	166.563868	1788.072324	27.496937
412	4.11000	-10.582652	945.088765	135.380446	-56.837731	1545.642623	126.298296	2.109288	1696.369029	101.387225	-35.995117	941.120040	66.374446	14.829873	949.057470	204.386445	58.592365	515.891464	12.819336	118.559525	518.224351	185.403992	-35.260528	125.614865	60.628611	6.803162	122.132422	220.026605	-62.916748	83.066459	79.230127	-33.348686	77.979147	227.521127	80.248736	48.593882	-16.357539	177.265394	44.088569	175.128198	-96.929715	1517.065764	-30.510123	-17.673197	1521.037213	275.414491	188.481399	1524.806409	-32.354737	206.255035	1588.250161	153.179635	210.259996	1743.617034	28.299574	169.980377	1788.063712	36.192101
413	4.12000	-7.216774	945.269497	134.221999	-54.342340	1545.851299	124.292636	5.112185	1696.670467	101.589946	-30.196167	941.166229	64.563328	15.762666	949.372743	203.880669	66.696875	515.825253	13.982283	118.284231	517.951740	188.894772	-28.670873	125.564775	56.892475	5.783233	121.593093	221.768308	-56.870869	83.078658	73.910100	-34.493121	77.439415	228.388616	88.104737	48.151672	-12.783037	176.810174	43.363102	180.876433	-88.869449	1517.370976	-33.560664	-20.760775	1521.283863	274.523486	196.101465	1526.582982	-27.527869	206.856555	1588.783905	161.809030	213.778743	1746.053098	32.858501	173.396887	1788.055099	44.887266
